# xmcd
#
# Track frame offsets: 
#        183
#        17683
#        33583
#        51593
#        66193
#        81453
#        93960
#        107563
#        118778
#        130635
#        142713
#        154580
#        168240
#        181188
#        193158
#        204933
#        217845
#
# Disc length: 3104 seconds
#
# Revision: 1
# Processed by: cddbd v1.5.2PL0 Copyright (c) Steve Scherf et al.
# Submitted via: ExactAudioCopyFreeDBPlugin 1.0
#
DISCID=e10c1e11
DTITLE=Muddy Waters - Baby Please Don't Go
DYEAR=1989
DGENRE=Blues
TTITLE0=Feel Like Going Home
TTITLE1=Long Distance
TTITLE2=My Home Is In The Delta
TTITLE3=Good Morning School Girl
TTITLE4=It's All Over
TTITLE5=When The Eagle Flies
TTITLE6=County Jail
TTITLE7=Kinkfolk's Blues
TTITLE8=Making Firends
TTITLE9=Find Yourself Another Fool
TTITLE10=Two Steps Forward
TTITLE11=Blind Man
TTITLE12=Bird Nest On The Ground
TTITLE13=My Life Is Ruined
TTITLE14=The Same Thing
TTITLE15=Baby Please Don't Go
TTITLE16=I Got My Mojo Working (Part1)
EXTD=
EXTT0=
EXTT1=
EXTT2=
EXTT3=
EXTT4=
EXTT5=
EXTT6=
EXTT7=
EXTT8=
EXTT9=
EXTT10=
EXTT11=
EXTT12=
EXTT13=
EXTT14=
EXTT15=
EXTT16=
PLAYORDER=
